<mxfile host="app.diagrams.net" modified="2022-05-24T08:40:18.588Z" agent="5.0 (Windows NT 10.0; Win64; x64) AppleWebKit/537.36 (KHTML, like Gecko) Chrome/101.0.4951.67 Safari/537.36" etag="evcf4xB7OWTDB-HjulC5" version="18.1.2" type="github">
  <diagram id="C5RBs43oDa-KdzZeNtuy" name="Page-1">
    <mxGraphModel dx="1038" dy="547" grid="0" gridSize="10" guides="1" tooltips="1" connect="1" arrows="1" fold="1" page="1" pageScale="1" pageWidth="827" pageHeight="1169" math="0" shadow="0">
      <root>
        <mxCell id="WIyWlLk6GJQsqaUBKTNV-0" />
        <mxCell id="WIyWlLk6GJQsqaUBKTNV-1" parent="WIyWlLk6GJQsqaUBKTNV-0" />
        <mxCell id="5PH4II6_FjdXYodjPLzH-0" value="&lt;span style=&quot;font-size:12.0pt;font-family:&amp;quot;PMingLiU&amp;quot;,serif;&lt;br/&gt;mso-bidi-font-family:&amp;quot;Times New Roman&amp;quot;;mso-font-kerning:1.0pt;mso-ansi-language:&lt;br/&gt;EN-US;mso-fareast-language:ZH-CN;mso-bidi-language:AR-SA&quot;&gt;普通任务类型&lt;/span&gt;" style="rounded=1;whiteSpace=wrap;html=1;" vertex="1" parent="WIyWlLk6GJQsqaUBKTNV-1">
          <mxGeometry x="240" y="20" width="90" height="60" as="geometry" />
        </mxCell>
        <mxCell id="5PH4II6_FjdXYodjPLzH-1" value="&lt;span style=&quot;font-size:12.0pt;font-family:&amp;quot;PMingLiU&amp;quot;,serif;&lt;br/&gt;mso-bidi-font-family:&amp;quot;Times New Roman&amp;quot;;mso-font-kerning:1.0pt;mso-ansi-language:&lt;br/&gt;EN-US;mso-fareast-language:ZH-CN;mso-bidi-language:AR-SA&quot;&gt;高&lt;span lang=&quot;EN-US&quot;&gt;CPU&lt;/span&gt;任务类型&lt;/span&gt;" style="rounded=1;whiteSpace=wrap;html=1;" vertex="1" parent="WIyWlLk6GJQsqaUBKTNV-1">
          <mxGeometry x="340" y="20" width="94" height="60" as="geometry" />
        </mxCell>
        <mxCell id="5PH4II6_FjdXYodjPLzH-2" value="&lt;span style=&quot;font-size:12.0pt;font-family:&amp;quot;PMingLiU&amp;quot;,serif;&lt;br/&gt;mso-bidi-font-family:&amp;quot;Times New Roman&amp;quot;;mso-font-kerning:1.0pt;mso-ansi-language:&lt;br/&gt;EN-US;mso-fareast-language:ZH-CN;mso-bidi-language:AR-SA&quot;&gt;高性能任务类型&lt;/span&gt;" style="rounded=1;whiteSpace=wrap;html=1;" vertex="1" parent="WIyWlLk6GJQsqaUBKTNV-1">
          <mxGeometry x="540" y="20" width="90" height="60" as="geometry" />
        </mxCell>
        <mxCell id="5PH4II6_FjdXYodjPLzH-5" value="&lt;span style=&quot;font-size:12.0pt;font-family:&amp;quot;PMingLiU&amp;quot;,serif;&lt;br/&gt;mso-bidi-font-family:&amp;quot;Times New Roman&amp;quot;;mso-font-kerning:1.0pt;mso-ansi-language:&lt;br/&gt;EN-US;mso-fareast-language:ZH-CN;mso-bidi-language:AR-SA&quot;&gt;高内存任务类型&lt;/span&gt;" style="rounded=1;whiteSpace=wrap;html=1;" vertex="1" parent="WIyWlLk6GJQsqaUBKTNV-1">
          <mxGeometry x="440" y="20" width="90" height="60" as="geometry" />
        </mxCell>
        <mxCell id="5PH4II6_FjdXYodjPLzH-6" value="计算批处理系统" style="rounded=1;whiteSpace=wrap;html=1;" vertex="1" parent="WIyWlLk6GJQsqaUBKTNV-1">
          <mxGeometry x="380" y="130" width="120" height="60" as="geometry" />
        </mxCell>
        <mxCell id="5PH4II6_FjdXYodjPLzH-7" value="&lt;span style=&quot;font-size:12.0pt;font-family:&amp;quot;PMingLiU&amp;quot;,serif;&lt;br/&gt;mso-bidi-font-family:&amp;quot;Times New Roman&amp;quot;;mso-font-kerning:1.0pt;mso-ansi-language:&lt;br/&gt;EN-US;mso-fareast-language:ZH-CN;mso-bidi-language:AR-SA&quot;&gt;平均计算型&lt;/span&gt;" style="rounded=1;whiteSpace=wrap;html=1;" vertex="1" parent="WIyWlLk6GJQsqaUBKTNV-1">
          <mxGeometry x="380" y="360" width="120" height="60" as="geometry" />
        </mxCell>
        <mxCell id="5PH4II6_FjdXYodjPLzH-8" value="&lt;span style=&quot;font-size:12.0pt;font-family:&amp;quot;PMingLiU&amp;quot;,serif;&lt;br/&gt;mso-bidi-font-family:&amp;quot;Times New Roman&amp;quot;;mso-font-kerning:1.0pt;mso-ansi-language:&lt;br/&gt;EN-US;mso-fareast-language:ZH-CN;mso-bidi-language:AR-SA&quot;&gt;空闲计算&lt;/span&gt;" style="rounded=1;whiteSpace=wrap;html=1;" vertex="1" parent="WIyWlLk6GJQsqaUBKTNV-1">
          <mxGeometry x="545" y="240" width="90" height="60" as="geometry" />
        </mxCell>
        <mxCell id="5PH4II6_FjdXYodjPLzH-9" value="&lt;span style=&quot;font-size:12.0pt;font-family:&lt;br/&gt;&amp;quot;PMingLiU&amp;quot;,serif;mso-bidi-font-family:&amp;quot;Times New Roman&amp;quot;;mso-font-kerning:1.0pt;&lt;br/&gt;mso-ansi-language:EN-US;mso-fareast-language:ZH-CN;mso-bidi-language:AR-SA&quot; lang=&quot;EN-US&quot;&gt;CPU&lt;/span&gt;&lt;span style=&quot;font-size:12.0pt;font-family:&amp;quot;PMingLiU&amp;quot;,serif;mso-bidi-font-family:&amp;quot;Times New Roman&amp;quot;;&lt;br/&gt;mso-font-kerning:1.0pt;mso-ansi-language:EN-US;mso-fareast-language:ZH-CN;&lt;br/&gt;mso-bidi-language:AR-SA&quot;&gt;计算型&lt;/span&gt;" style="rounded=1;whiteSpace=wrap;html=1;" vertex="1" parent="WIyWlLk6GJQsqaUBKTNV-1">
          <mxGeometry x="245" y="240" width="90" height="60" as="geometry" />
        </mxCell>
        <mxCell id="5PH4II6_FjdXYodjPLzH-10" value="&lt;span style=&quot;font-size:12.0pt;font-family:&amp;quot;PMingLiU&amp;quot;,serif;&lt;br/&gt;mso-bidi-font-family:&amp;quot;Times New Roman&amp;quot;;mso-font-kerning:1.0pt;mso-ansi-language:&lt;br/&gt;EN-US;mso-fareast-language:ZH-CN;mso-bidi-language:AR-SA&quot;&gt;高性能计算型&lt;/span&gt;" style="rounded=1;whiteSpace=wrap;html=1;" vertex="1" parent="WIyWlLk6GJQsqaUBKTNV-1">
          <mxGeometry x="445" y="240" width="90" height="60" as="geometry" />
        </mxCell>
        <mxCell id="5PH4II6_FjdXYodjPLzH-11" value="&lt;span style=&quot;font-size:12.0pt;font-family:&amp;quot;PMingLiU&amp;quot;,serif;&lt;br/&gt;mso-bidi-font-family:&amp;quot;Times New Roman&amp;quot;;mso-font-kerning:1.0pt;mso-ansi-language:&lt;br/&gt;EN-US;mso-fareast-language:ZH-CN;mso-bidi-language:AR-SA&quot;&gt;内存计算型&lt;/span&gt;" style="rounded=1;whiteSpace=wrap;html=1;" vertex="1" parent="WIyWlLk6GJQsqaUBKTNV-1">
          <mxGeometry x="349" y="240" width="90" height="60" as="geometry" />
        </mxCell>
        <mxCell id="5PH4II6_FjdXYodjPLzH-12" value="集群服务器" style="rounded=1;whiteSpace=wrap;html=1;" vertex="1" parent="WIyWlLk6GJQsqaUBKTNV-1">
          <mxGeometry x="380" y="450" width="120" height="60" as="geometry" />
        </mxCell>
        <mxCell id="5PH4II6_FjdXYodjPLzH-26" value="" style="endArrow=none;html=1;rounded=0;" edge="1" parent="WIyWlLk6GJQsqaUBKTNV-1">
          <mxGeometry width="50" height="50" relative="1" as="geometry">
            <mxPoint x="284" y="110" as="sourcePoint" />
            <mxPoint x="585" y="110" as="targetPoint" />
          </mxGeometry>
        </mxCell>
        <mxCell id="5PH4II6_FjdXYodjPLzH-27" value="" style="endArrow=none;html=1;rounded=0;exitX=0.5;exitY=1;exitDx=0;exitDy=0;" edge="1" parent="WIyWlLk6GJQsqaUBKTNV-1" source="5PH4II6_FjdXYodjPLzH-0">
          <mxGeometry width="50" height="50" relative="1" as="geometry">
            <mxPoint x="290" y="120" as="sourcePoint" />
            <mxPoint x="285" y="110" as="targetPoint" />
          </mxGeometry>
        </mxCell>
        <mxCell id="5PH4II6_FjdXYodjPLzH-28" value="" style="endArrow=none;html=1;rounded=0;exitX=0.5;exitY=1;exitDx=0;exitDy=0;" edge="1" parent="WIyWlLk6GJQsqaUBKTNV-1">
          <mxGeometry width="50" height="50" relative="1" as="geometry">
            <mxPoint x="388.5" y="80" as="sourcePoint" />
            <mxPoint x="388.5" y="110" as="targetPoint" />
          </mxGeometry>
        </mxCell>
        <mxCell id="5PH4II6_FjdXYodjPLzH-29" value="" style="endArrow=none;html=1;rounded=0;exitX=0.5;exitY=1;exitDx=0;exitDy=0;" edge="1" parent="WIyWlLk6GJQsqaUBKTNV-1">
          <mxGeometry width="50" height="50" relative="1" as="geometry">
            <mxPoint x="484.5" y="80" as="sourcePoint" />
            <mxPoint x="484.5" y="110" as="targetPoint" />
          </mxGeometry>
        </mxCell>
        <mxCell id="5PH4II6_FjdXYodjPLzH-30" value="" style="endArrow=none;html=1;rounded=0;exitX=0.5;exitY=1;exitDx=0;exitDy=0;" edge="1" parent="WIyWlLk6GJQsqaUBKTNV-1">
          <mxGeometry width="50" height="50" relative="1" as="geometry">
            <mxPoint x="584.5" y="80" as="sourcePoint" />
            <mxPoint x="584.5" y="110" as="targetPoint" />
          </mxGeometry>
        </mxCell>
        <mxCell id="5PH4II6_FjdXYodjPLzH-31" value="" style="endArrow=classic;html=1;rounded=0;entryX=0.5;entryY=0;entryDx=0;entryDy=0;" edge="1" parent="WIyWlLk6GJQsqaUBKTNV-1" target="5PH4II6_FjdXYodjPLzH-6">
          <mxGeometry width="50" height="50" relative="1" as="geometry">
            <mxPoint x="440" y="110" as="sourcePoint" />
            <mxPoint x="440" y="120" as="targetPoint" />
          </mxGeometry>
        </mxCell>
        <mxCell id="5PH4II6_FjdXYodjPLzH-34" value="" style="endArrow=none;html=1;rounded=0;" edge="1" parent="WIyWlLk6GJQsqaUBKTNV-1">
          <mxGeometry width="50" height="50" relative="1" as="geometry">
            <mxPoint x="220" y="210" as="sourcePoint" />
            <mxPoint x="589" y="210" as="targetPoint" />
          </mxGeometry>
        </mxCell>
        <mxCell id="5PH4II6_FjdXYodjPLzH-35" value="" style="endArrow=none;html=1;rounded=0;exitX=0.5;exitY=1;exitDx=0;exitDy=0;" edge="1" parent="WIyWlLk6GJQsqaUBKTNV-1">
          <mxGeometry width="50" height="50" relative="1" as="geometry">
            <mxPoint x="284.5" y="210" as="sourcePoint" />
            <mxPoint x="284.5" y="240" as="targetPoint" />
          </mxGeometry>
        </mxCell>
        <mxCell id="5PH4II6_FjdXYodjPLzH-36" value="" style="endArrow=none;html=1;rounded=0;exitX=0.5;exitY=1;exitDx=0;exitDy=0;" edge="1" parent="WIyWlLk6GJQsqaUBKTNV-1">
          <mxGeometry width="50" height="50" relative="1" as="geometry">
            <mxPoint x="393.5" y="210" as="sourcePoint" />
            <mxPoint x="393.5" y="240" as="targetPoint" />
          </mxGeometry>
        </mxCell>
        <mxCell id="5PH4II6_FjdXYodjPLzH-38" value="" style="endArrow=none;html=1;rounded=0;exitX=0.5;exitY=1;exitDx=0;exitDy=0;" edge="1" parent="WIyWlLk6GJQsqaUBKTNV-1">
          <mxGeometry width="50" height="50" relative="1" as="geometry">
            <mxPoint x="489.5" y="210" as="sourcePoint" />
            <mxPoint x="489.5" y="240" as="targetPoint" />
          </mxGeometry>
        </mxCell>
        <mxCell id="5PH4II6_FjdXYodjPLzH-39" value="" style="endArrow=none;html=1;rounded=0;exitX=0.5;exitY=1;exitDx=0;exitDy=0;" edge="1" parent="WIyWlLk6GJQsqaUBKTNV-1">
          <mxGeometry width="50" height="50" relative="1" as="geometry">
            <mxPoint x="589.5" y="210" as="sourcePoint" />
            <mxPoint x="589.5" y="240" as="targetPoint" />
          </mxGeometry>
        </mxCell>
        <mxCell id="5PH4II6_FjdXYodjPLzH-40" value="" style="endArrow=classic;html=1;rounded=0;entryX=0.5;entryY=0;entryDx=0;entryDy=0;" edge="1" parent="WIyWlLk6GJQsqaUBKTNV-1">
          <mxGeometry width="50" height="50" relative="1" as="geometry">
            <mxPoint x="440" y="190" as="sourcePoint" />
            <mxPoint x="440" y="210" as="targetPoint" />
          </mxGeometry>
        </mxCell>
        <mxCell id="5PH4II6_FjdXYodjPLzH-41" value="" style="endArrow=none;html=1;rounded=0;" edge="1" parent="WIyWlLk6GJQsqaUBKTNV-1">
          <mxGeometry width="50" height="50" relative="1" as="geometry">
            <mxPoint x="288.5" y="330" as="sourcePoint" />
            <mxPoint x="591.5" y="330" as="targetPoint" />
          </mxGeometry>
        </mxCell>
        <mxCell id="5PH4II6_FjdXYodjPLzH-42" value="" style="endArrow=none;html=1;rounded=0;exitX=0.5;exitY=1;exitDx=0;exitDy=0;" edge="1" parent="WIyWlLk6GJQsqaUBKTNV-1">
          <mxGeometry width="50" height="50" relative="1" as="geometry">
            <mxPoint x="289.5" y="300" as="sourcePoint" />
            <mxPoint x="289.5" y="330" as="targetPoint" />
          </mxGeometry>
        </mxCell>
        <mxCell id="5PH4II6_FjdXYodjPLzH-43" value="" style="endArrow=none;html=1;rounded=0;exitX=0.5;exitY=1;exitDx=0;exitDy=0;" edge="1" parent="WIyWlLk6GJQsqaUBKTNV-1">
          <mxGeometry width="50" height="50" relative="1" as="geometry">
            <mxPoint x="393.5" y="300" as="sourcePoint" />
            <mxPoint x="393.5" y="330" as="targetPoint" />
          </mxGeometry>
        </mxCell>
        <mxCell id="5PH4II6_FjdXYodjPLzH-44" value="" style="endArrow=none;html=1;rounded=0;exitX=0.5;exitY=1;exitDx=0;exitDy=0;" edge="1" parent="WIyWlLk6GJQsqaUBKTNV-1">
          <mxGeometry width="50" height="50" relative="1" as="geometry">
            <mxPoint x="489.5" y="300" as="sourcePoint" />
            <mxPoint x="489.5" y="330" as="targetPoint" />
          </mxGeometry>
        </mxCell>
        <mxCell id="5PH4II6_FjdXYodjPLzH-45" value="" style="endArrow=none;html=1;rounded=0;exitX=0.5;exitY=1;exitDx=0;exitDy=0;" edge="1" parent="WIyWlLk6GJQsqaUBKTNV-1">
          <mxGeometry width="50" height="50" relative="1" as="geometry">
            <mxPoint x="589.5" y="300" as="sourcePoint" />
            <mxPoint x="589.5" y="330" as="targetPoint" />
          </mxGeometry>
        </mxCell>
        <mxCell id="5PH4II6_FjdXYodjPLzH-47" value="" style="endArrow=classic;html=1;rounded=0;entryX=0.5;entryY=0;entryDx=0;entryDy=0;" edge="1" parent="WIyWlLk6GJQsqaUBKTNV-1" target="5PH4II6_FjdXYodjPLzH-7">
          <mxGeometry width="50" height="50" relative="1" as="geometry">
            <mxPoint x="440" y="330" as="sourcePoint" />
            <mxPoint x="440" y="350" as="targetPoint" />
          </mxGeometry>
        </mxCell>
        <mxCell id="5PH4II6_FjdXYodjPLzH-48" value="" style="endArrow=classic;html=1;rounded=0;entryX=0.5;entryY=0;entryDx=0;entryDy=0;" edge="1" parent="WIyWlLk6GJQsqaUBKTNV-1">
          <mxGeometry width="50" height="50" relative="1" as="geometry">
            <mxPoint x="442" y="420" as="sourcePoint" />
            <mxPoint x="442" y="450" as="targetPoint" />
          </mxGeometry>
        </mxCell>
        <mxCell id="5PH4II6_FjdXYodjPLzH-49" value="" style="endArrow=none;html=1;rounded=0;" edge="1" parent="WIyWlLk6GJQsqaUBKTNV-1">
          <mxGeometry width="50" height="50" relative="1" as="geometry">
            <mxPoint x="220" y="390" as="sourcePoint" />
            <mxPoint x="220" y="210" as="targetPoint" />
          </mxGeometry>
        </mxCell>
        <mxCell id="5PH4II6_FjdXYodjPLzH-50" value="" style="endArrow=classic;html=1;rounded=0;entryX=0;entryY=0.5;entryDx=0;entryDy=0;" edge="1" parent="WIyWlLk6GJQsqaUBKTNV-1" target="5PH4II6_FjdXYodjPLzH-7">
          <mxGeometry width="50" height="50" relative="1" as="geometry">
            <mxPoint x="220" y="390" as="sourcePoint" />
            <mxPoint x="440" y="240" as="targetPoint" />
          </mxGeometry>
        </mxCell>
      </root>
    </mxGraphModel>
  </diagram>
</mxfile>
